<?xml version="1.0" standalone="no"?>
<!DOCTYPE svg PUBLIC "-//W3C//DTD SVG 20010904//EN"
 "http://www.w3.org/TR/2001/REC-SVG-20010904/DTD/svg10.dtd">
<svg version="1.0" xmlns="http://www.w3.org/2000/svg"
 width="512.000000pt" height="512.000000pt" viewBox="0 0 512.000000 512.000000"
 preserveAspectRatio="xMidYMid meet">

<g transform="translate(0.000000,512.000000) scale(0.100000,-0.100000)"
fill="#000000" stroke="none">
<path d="M845 5105 c-332 -62 -594 -316 -666 -645 -19 -87 -19 -140 -19 -1732
1 -1701 0 -1639 36 -1817 3 -14 7 -28 10 -32 2 -4 7 -27 10 -51 32 -225 206
-458 425 -567 185 -93 28 -86 1919 -86 1872 0 1732 -6 1901 76 210 102 373
295 425 505 9 38 22 90 29 116 9 35 10 46 1 41 -6 -4 -6 0 2 9 40 50 41 91 42
1806 0 1463 -2 1651 -16 1720 -67 324 -327 587 -648 653 -87 18 -166 19 -1736
18 -1307 -1 -1659 -3 -1715 -14z m330 -433 c232 -108 325 -393 200 -607 -32
-54 -107 -129 -158 -159 -115 -67 -279 -75 -398 -19 -222 104 -314 356 -211
577 75 161 223 249 407 243 77 -2 100 -7 160 -35z m507 -97 c15 -44 34 -107
44 -140 l17 -60 17 40 c9 22 32 86 51 143 l33 102 63 0 c35 0 63 -2 63 -3 0
-2 -34 -104 -75 -226 l-75 -221 0 -155 0 -155 -75 0 -75 0 0 145 0 145 -70
219 c-38 120 -70 226 -70 235 0 14 10 16 63 14 l62 -3 27 -80z m582 76 c5 -8
126 -719 126 -740 0 -7 -27 -11 -69 -11 l-68 0 -14 88 -14 87 -72 3 c-81 3
-74 11 -93 -106 l-12 -73 -61 3 c-60 3 -62 4 -59 28 4 26 106 588 123 678 l10
52 99 0 c54 0 101 -4 104 -9z m396 -15 c5 -14 21 -88 36 -165 16 -77 31 -138
35 -136 3 3 9 26 13 52 3 26 16 98 27 160 l21 114 107 -3 106 -3 3 -377 2
-378 -70 0 -70 0 -1 268 c0 147 -3 262 -5 256 -3 -7 -22 -108 -43 -225 l-37
-214 -60 0 -59 0 -47 225 -46 225 -1 -267 -1 -268 -60 0 -60 0 0 380 0 380
100 0 c97 0 101 -1 110 -24z m745 13 c7 -10 125 -707 125 -735 0 -12 -14 -14
-67 -12 l-68 3 -15 85 -15 85 -73 3 c-39 2 -72 2 -72 0 0 -2 -7 -41 -15 -88
-8 -47 -15 -86 -15 -87 0 -2 -27 -3 -60 -3 -56 0 -60 2 -60 23 0 12 20 128 44
257 24 129 54 290 66 358 l22 122 98 0 c59 0 101 -4 105 -11z m323 -136 l3
-143 69 0 70 0 0 145 0 146 68 -3 67 -3 0 -375 0 -375 -67 -3 -68 -3 0 166 0
165 -70 0 -70 0 -2 -162 -3 -163 -67 -3 -68 -3 0 374 c0 205 3 377 7 381 4 4
34 6 68 4 l60 -3 3 -142z m734 -198 c31 -187 59 -357 62 -377 l6 -38 -69 0
-69 0 -12 73 c-19 116 -12 108 -93 105 l-71 -3 -15 -85 -16 -85 -63 -3 -64 -3
6 28 c3 15 33 177 66 358 33 182 62 340 65 353 5 22 8 23 108 20 l102 -3 57
-340z m-2190 -939 c139 -27 266 -95 362 -195 l39 -40 51 43 c112 94 214 148
341 182 107 28 371 25 480 -5 279 -76 452 -261 500 -536 13 -74 15 -217 15
-916 l0 -829 -240 0 -240 0 0 808 c0 512 -4 830 -11 871 -28 175 -111 252
-285 267 -220 18 -387 -58 -445 -202 l-24 -59 -5 -840 -5 -840 -232 -3 -233
-2 0 807 c0 518 -4 831 -11 873 -20 127 -70 200 -163 241 -43 20 -69 23 -171
23 -225 1 -341 -62 -402 -214 -17 -42 -18 -105 -21 -885 l-2 -840 -220 -3
-220 -2 0 1100 c0 1054 1 1100 18 1100 10 0 76 -12 148 -26 168 -33 222 -30
340 23 227 102 444 136 636 99z m2625 -2498 c-3 -8 -6 -5 -6 6 -1 11 2 17 5
13 3 -3 4 -12 1 -19z m-4657 -39 c0 -5 -4 -9 -8 -9 -5 0 -9 7 -9 15 0 8 4 12
9 9 4 -3 8 -9 8 -15z m3400 -54 c0 -8 -4 -15 -10 -15 -5 0 -10 7 -10 15 0 8 5
15 10 15 6 0 10 -7 10 -15z m1230 -5 c-6 -11 -15 -20 -20 -20 -14 0 -12 6 6
24 21 22 27 20 14 -4z m-4590 -14 c0 -8 3 -23 6 -33 3 -10 -2 -7 -10 7 -18 30
-20 40 -6 40 6 0 10 -6 10 -14z m4548 -44 c9 7 3 -4 -13 -25 -21 -29 -30 -35
-37 -25 -6 9 -7 6 -3 -9 4 -14 0 -28 -13 -41 -10 -10 -25 -27 -33 -38 -8 -11
-27 -30 -43 -42 -23 -17 -31 -20 -38 -10 -6 10 -8 9 -8 -3 0 -8 -13 -27 -28
-42 -23 -22 -31 -25 -41 -14 -11 10 -13 9 -8 -6 5 -13 -3 -22 -31 -36 -59 -31
-105 -52 -122 -55 -8 -1 -26 -7 -40 -13 -90 -37 -66 -37 -1768 -40 -1451 -3
-1663 -2 -1735 12 -45 8 -86 17 -92 18 -5 2 -29 10 -52 17 -24 7 -43 17 -43
22 0 5 -3 7 -7 5 -15 -9 -54 13 -47 24 4 7 3 9 -3 6 -19 -12 -150 72 -136 87
4 3 1 6 -6 6 -13 0 -71 39 -83 55 -4 5 -4 13 -1 19 3 5 2 7 -3 4 -5 -2 -22 8
-37 24 -15 15 -25 28 -21 28 4 0 -3 11 -16 25 -13 14 -21 28 -17 31 4 4 9 0
13 -9 3 -9 12 -13 20 -10 10 4 14 -3 14 -21 0 -16 6 -26 15 -26 8 0 15 6 15
13 0 9 10 12 30 9 17 -2 30 -8 30 -13 0 -5 9 -9 20 -9 17 0 20 7 20 40 l0 40
2163 2 c1189 2 2164 -1 2165 -5 2 -4 11 -2 20 5z"/>
<path d="M888 4641 c-31 -10 -72 -28 -91 -40 -52 -32 -116 -106 -145 -169 -23
-49 -27 -70 -27 -152 0 -87 3 -101 32 -161 40 -80 111 -150 191 -187 47 -22
71 -26 142 -27 143 0 247 54 322 166 79 117 86 247 23 376 -83 169 -271 250
-447 194z m136 -50 c14 -41 15 -53 5 -70 -11 -17 -10 -23 6 -40 10 -12 21 -37
24 -56 l6 -34 75 44 c68 40 76 42 88 27 15 -20 10 -25 -95 -83 -68 -38 -94
-69 -57 -69 8 0 53 22 99 50 81 47 85 48 95 30 9 -17 6 -23 -19 -37 -16 -10
-50 -31 -76 -46 l-47 -28 26 -20 c14 -11 31 -32 38 -47 9 -17 21 -27 36 -27
12 0 34 -15 52 -35 33 -40 39 -64 13 -56 -10 3 -34 8 -55 11 -25 5 -38 13 -41
27 -5 17 -12 20 -39 15 -18 -2 -48 1 -65 9 l-33 13 0 -90 c0 -82 -1 -89 -20
-89 -19 0 -20 7 -20 105 0 98 -1 105 -20 105 -19 0 -20 -7 -20 -105 l0 -105
-25 0 c-25 0 -25 1 -25 86 0 84 0 85 -22 77 -13 -4 -39 -7 -58 -6 -24 2 -40
-4 -50 -17 -15 -19 -106 -44 -114 -31 -3 4 11 25 30 48 24 29 40 40 53 36 15
-4 24 4 40 35 11 22 27 42 36 45 27 11 17 22 -55 63 -38 21 -70 44 -70 49 1
35 19 32 100 -15 90 -52 110 -59 110 -36 0 8 -37 37 -82 63 -84 50 -93 59 -79
81 6 10 26 2 84 -32 l76 -45 7 32 c3 18 15 42 25 55 14 19 16 28 7 47 -9 19
-7 34 6 70 10 25 21 45 25 45 4 0 15 -22 25 -49z"/>
<path d="M980 4401 c0 -35 3 -41 21 -41 17 0 20 5 17 37 -2 27 -8 39 -20 41
-15 3 -18 -4 -18 -37z"/>
<path d="M980 4280 c0 -13 7 -20 20 -20 13 0 20 7 20 20 0 13 -7 20 -20 20
-13 0 -20 -7 -20 -20z"/>
<path d="M882 4234 c-24 -16 -30 -44 -9 -44 20 0 57 30 57 46 0 18 -20 18 -48
-2z"/>
<path d="M1067 4243 c-13 -12 -7 -23 23 -38 30 -15 50 -13 50 5 0 5 -13 16
-30 25 -33 17 -34 17 -43 8z"/>
<path d="M2147 4485 c-4 -16 -13 -73 -22 -125 -9 -52 -18 -107 -21 -122 -6
-28 -5 -28 45 -28 60 0 58 -15 27 170 -17 103 -24 128 -29 105z"/>
<path d="M3291 4506 c-2 -16 -41 -251 -46 -273 -5 -22 -2 -23 45 -23 37 0 50
4 50 15 0 19 -39 267 -45 280 -2 6 -4 6 -4 1z"/>
<path d="M4266 4383 c-9 -60 -19 -123 -23 -140 l-5 -33 52 0 c49 0 52 1 47 23
-3 12 -13 75 -23 140 -10 64 -21 117 -24 117 -4 0 -14 -48 -24 -107z"/>
</g>
</svg>
